<svg width="128" height="40" viewBox="0 0 128 40" fill="none" xmlns="http://www.w3.org/2000/svg">
<path d="M59.34 12.96V15.7H55.62V27H52.2V15.7H48.48V12.96H59.34ZM66.1364 27.16C65.0431 27.16 64.0564 26.9267 63.1764 26.46C62.3097 25.9933 61.6231 25.3267 61.1164 24.46C60.6231 23.5933 60.3764 22.58 60.3764 21.42C60.3764 20.2733 60.6297 19.2667 61.1364 18.4C61.6431 17.52 62.3364 16.8467 63.2164 16.38C64.0964 15.9133 65.0831 15.68 66.1764 15.68C67.2697 15.68 68.2564 15.9133 69.1364 16.38C70.0164 16.8467 70.7097 17.52 71.2164 18.4C71.7231 19.2667 71.9764 20.2733 71.9764 21.42C71.9764 22.5667 71.7164 23.58 71.1964 24.46C70.6897 25.3267 69.9897 25.9933 69.0964 26.46C68.2164 26.9267 67.2297 27.16 66.1364 27.16ZM66.1364 24.2C66.7897 24.2 67.3431 23.96 67.7964 23.48C68.2631 23 68.4964 22.3133 68.4964 21.42C68.4964 20.5267 68.2697 19.84 67.8164 19.36C67.3764 18.88 66.8297 18.64 66.1764 18.64C65.5097 18.64 64.9564 18.88 64.5164 19.36C64.0764 19.8267 63.8564 20.5133 63.8564 21.42C63.8564 22.3133 64.0697 23 64.4964 23.48C64.9364 23.96 65.4831 24.2 66.1364 24.2ZM84.8108 15.84V27H81.3908V25.48C81.0441 25.9733 80.5708 26.3733 79.9708 26.68C79.3841 26.9733 78.7308 27.12 78.0108 27.12C77.1574 27.12 76.4041 26.9333 75.7508 26.56C75.0974 26.1733 74.5908 25.62 74.2308 24.9C73.8708 24.18 73.6908 23.3333 73.6908 22.36V15.84H77.0908V21.9C77.0908 22.6467 77.2841 23.2267 77.6708 23.64C78.0574 24.0533 78.5774 24.26 79.2308 24.26C79.8974 24.26 80.4241 24.0533 80.8108 23.64C81.1974 23.2267 81.3908 22.6467 81.3908 21.9V15.84H84.8108ZM90.6873 17.7C91.0873 17.0867 91.5873 16.6067 92.1873 16.26C92.7873 15.9 93.454 15.72 94.1873 15.72V19.34H93.2473C92.394 19.34 91.754 19.5267 91.3273 19.9C90.9007 20.26 90.6873 20.9 90.6873 21.82V27H87.2673V15.84H90.6873V17.7ZM97.542 14.68C96.942 14.68 96.4487 14.5067 96.062 14.16C95.6887 13.8 95.502 13.36 95.502 12.84C95.502 12.3067 95.6887 11.8667 96.062 11.52C96.4487 11.16 96.942 10.98 97.542 10.98C98.1287 10.98 98.6087 11.16 98.982 11.52C99.3687 11.8667 99.562 12.3067 99.562 12.84C99.562 13.36 99.3687 13.8 98.982 14.16C98.6087 14.5067 98.1287 14.68 97.542 14.68ZM99.242 15.84V27H95.822V15.84H99.242ZM108.52 15.72C109.827 15.72 110.867 16.1467 111.64 17C112.427 17.84 112.82 19 112.82 20.48V27H109.42V20.94C109.42 20.1933 109.227 19.6133 108.84 19.2C108.454 18.7867 107.934 18.58 107.28 18.58C106.627 18.58 106.107 18.7867 105.72 19.2C105.334 19.6133 105.14 20.1933 105.14 20.94V27H101.72V15.84H105.14V17.32C105.487 16.8267 105.954 16.44 106.54 16.16C107.127 15.8667 107.787 15.72 108.52 15.72ZM119.437 15.68C120.224 15.68 120.91 15.84 121.497 16.16C122.097 16.48 122.557 16.9 122.877 17.42V15.84H126.297V26.98C126.297 28.0067 126.09 28.9333 125.677 29.76C125.277 30.6 124.657 31.2667 123.817 31.76C122.99 32.2533 121.957 32.5 120.717 32.5C119.064 32.5 117.724 32.1067 116.697 31.32C115.67 30.5467 115.084 29.4933 114.937 28.16H118.317C118.424 28.5867 118.677 28.92 119.077 29.16C119.477 29.4133 119.97 29.54 120.557 29.54C121.264 29.54 121.824 29.3333 122.237 28.92C122.664 28.52 122.877 27.8733 122.877 26.98V25.4C122.544 25.92 122.084 26.3467 121.497 26.68C120.91 27 120.224 27.16 119.437 27.16C118.517 27.16 117.684 26.9267 116.937 26.46C116.19 25.98 115.597 25.3067 115.157 24.44C114.73 23.56 114.517 22.5467 114.517 21.4C114.517 20.2533 114.73 19.2467 115.157 18.38C115.597 17.5133 116.19 16.8467 116.937 16.38C117.684 15.9133 118.517 15.68 119.437 15.68ZM122.877 21.42C122.877 20.5667 122.637 19.8933 122.157 19.4C121.69 18.9067 121.117 18.66 120.437 18.66C119.757 18.66 119.177 18.9067 118.697 19.4C118.23 19.88 117.997 20.5467 117.997 21.4C117.997 22.2533 118.23 22.9333 118.697 23.44C119.177 23.9333 119.757 24.18 120.437 24.18C121.117 24.18 121.69 23.9333 122.157 23.44C122.637 22.9467 122.877 22.2733 122.877 21.42Z" fill="black"/>
<circle cx="20" cy="20" r="20" fill="#1B263B"/>
<path d="M27.87 16.6C27.7955 16.4287 27.6745 16.2817 27.5207 16.1757C27.367 16.0696 27.1866 16.0088 27 16H22.42L23.69 11.26C23.7304 11.1117 23.7362 10.956 23.7067 10.8051C23.6772 10.6542 23.6133 10.5122 23.52 10.39C23.4268 10.269 23.3072 10.1709 23.1703 10.1033C23.0333 10.0357 22.8827 10.0003 22.73 9.99998H15.73C15.5042 9.99224 15.2825 10.0612 15.1009 10.1955C14.9193 10.3299 14.7886 10.5218 14.73 10.74L12.05 20.74C12.0096 20.8883 12.0038 21.044 12.0333 21.1948C12.0628 21.3457 12.1267 21.4878 12.22 21.61C12.3142 21.7323 12.4354 21.8312 12.5742 21.8989C12.713 21.9665 12.8656 22.0011 13.02 22H16.89L15.08 28.74C15.0207 28.9573 15.0365 29.1883 15.1249 29.3955C15.2133 29.6028 15.3691 29.7741 15.567 29.8817C15.7649 29.9893 15.9933 30.027 16.2153 29.9886C16.4373 29.9501 16.6398 29.8379 16.79 29.67L27.69 17.67C27.8198 17.5279 27.9058 17.3513 27.9377 17.1615C27.9697 16.9717 27.9461 16.7767 27.87 16.6V16.6ZM18.08 25.28L19.15 21.28C19.1904 21.1317 19.1962 20.976 19.1667 20.8251C19.1372 20.6742 19.0733 20.5322 18.98 20.41C18.8868 20.289 18.7672 20.1909 18.6303 20.1233C18.4933 20.0557 18.3427 20.0203 18.19 20.02H14.35L16.49 12H21.42L20.15 16.74C20.1092 16.891 20.1045 17.0495 20.1361 17.2028C20.1677 17.356 20.2349 17.4997 20.3322 17.6222C20.4294 17.7448 20.5541 17.8428 20.6961 17.9084C20.8382 17.974 20.9936 18.0054 21.15 18H24.72L18.08 25.28Z" fill="white"/>
</svg>
